<svg width="20" height="20" viewBox="0 0 20 20" fill="none" xmlns="http://www.w3.org/2000/svg">
<path d="M4.24264 1.41422C3.46159 0.633168 2.19526 0.633168 1.41421 1.41422C0.633165 2.19527 0.633165 3.4616 1.41421 4.24264L15.5563 18.3848C16.3374 19.1658 17.6037 19.1658 18.3848 18.3848C19.1658 17.6037 19.1658 16.3374 18.3848 15.5564L4.24264 1.41422Z" fill="white"/>
<path d="M18.3852 4.24307C19.1663 3.46202 19.1663 2.19569 18.3852 1.41464C17.6042 0.633592 16.3378 0.633592 15.5568 1.41464L1.41464 15.5568C0.633595 16.3378 0.633596 17.6042 1.41464 18.3852C2.19569 19.1663 3.46202 19.1663 4.24307 18.3852L18.3852 4.24307Z" fill="white"/>
</svg>
